<svg xmlns="http://www.w3.org/2000/svg" width="56.784" height="53.729" viewBox="0 0 56.784 53.729">
  <g id="growth-graph" transform="translate(-0.5 -1.191)">
    <path id="Path_18" data-name="Path 18" d="M.5,27.235a2.121,2.121,0,0,0,2.129,2.129H9.254a2.515,2.515,0,0,0,1.893-2.129V22.029A2.121,2.121,0,0,0,9.018,19.9H2.629A2.121,2.121,0,0,0,.5,22.029Z" transform="translate(0 25.556)"/>
    <path id="Path_19" data-name="Path 19" d="M15.654,33.362a2.121,2.121,0,0,0,2.129-2.129v-12.3A2.121,2.121,0,0,0,15.654,16.8H9.029A2.121,2.121,0,0,0,6.9,18.929v12.54A2.121,2.121,0,0,0,9.029,33.6h6.625Z" transform="translate(8.742 21.322)"/>
    <path id="Path_20" data-name="Path 20" d="M15.529,37.323h6.625a2.121,2.121,0,0,0,2.129-2.129V16.029A2.121,2.121,0,0,0,22.154,13.9H15.529A2.121,2.121,0,0,0,13.4,16.029v19.4A2.515,2.515,0,0,0,15.529,37.323Z" transform="translate(17.621 17.36)"/>
    <path id="Path_21" data-name="Path 21" d="M30.784,11.129A2.121,2.121,0,0,0,28.654,9H22.029A2.121,2.121,0,0,0,19.9,11.129V41.887a2.121,2.121,0,0,0,2.129,2.129h6.625a2.121,2.121,0,0,0,2.129-2.129Z" transform="translate(26.5 10.667)"/>
    <path id="Path_22" data-name="Path 22" d="M45.6,12.1a1.738,1.738,0,0,0,1.42.473,1.422,1.422,0,0,0,.946-.237A2.273,2.273,0,0,0,49.62,10.2l.473-6.388a3,3,0,0,0-.946-2.129,2.176,2.176,0,0,0-2.366-.237L40.866,3.578a2.62,2.62,0,0,0-1.656,2.129,2.249,2.249,0,0,0,.946,2.366l.946.71C33.058,18.247,17.916,28.658,4.666,28.658a2.366,2.366,0,0,0,0,4.732c14.906,0,31.468-11.357,40.222-22Z" transform="translate(2.459 0)"/>
  </g>
</svg>
