<svg xmlns="http://www.w3.org/2000/svg" xmlns:xlink="http://www.w3.org/1999/xlink" width="22.484" height="22.485" viewBox="0 0 22.484 22.485">
  <defs>
    <linearGradient id="linear-gradient" x1="0.103" y1="0.952" x2="1.876" y2="-0.702" gradientUnits="objectBoundingBox">
      <stop offset="0" stop-color="#f9bf00"/>
      <stop offset="1" stop-color="#f99900"/>
    </linearGradient>
  </defs>
  <g id="check_icon" data-name="check icon" transform="translate(-0.003 0)">
    <g id="Group_1" data-name="Group 1" transform="translate(0.003 0)">
      <path id="Path_2" data-name="Path 2" d="M21.942,9.917,20.408,8.384a2.606,2.606,0,0,1-.662-1.6V4.617a1.879,1.879,0,0,0-1.874-1.875H15.7a2.61,2.61,0,0,1-1.6-.662L12.57.546a1.88,1.88,0,0,0-2.65,0L8.387,2.08a2.611,2.611,0,0,1-1.6.662H4.62A1.879,1.879,0,0,0,2.746,4.617V6.785a2.61,2.61,0,0,1-.662,1.6L.55,9.917a1.88,1.88,0,0,0,0,2.651L2.084,14.1a2.609,2.609,0,0,1,.662,1.6v2.168A1.88,1.88,0,0,0,4.62,19.743H6.788a2.609,2.609,0,0,1,1.6.662l1.533,1.534a1.881,1.881,0,0,0,2.65,0L14.1,20.4a2.608,2.608,0,0,1,1.6-.662h2.169a1.879,1.879,0,0,0,1.874-1.874V15.7a2.606,2.606,0,0,1,.662-1.6l1.534-1.533A1.882,1.882,0,0,0,21.942,9.917ZM9.758,15.458,5.624,11.324,6.949,10l2.81,2.81,5.783-5.782,1.325,1.325Z" transform="translate(-0.003 0)" fill="url(#linear-gradient)"/>
    </g>
  </g>
</svg>
