<svg xmlns="http://www.w3.org/2000/svg" width="37.746" height="50.327" viewBox="0 0 37.746 50.327">
  <g id="water-glass" transform="translate(-63.996)">
    <g id="Group_24" data-name="Group 24" transform="translate(63.996)">
      <path id="Path_23" data-name="Path 23" d="M101.337.519A1.57,1.57,0,0,0,100.17,0H65.57A1.576,1.576,0,0,0,64,1.73l4.718,47.181a1.573,1.573,0,0,0,1.566,1.415H95.452a1.568,1.568,0,0,0,1.563-1.415L101.733,1.73A1.551,1.551,0,0,0,101.337.519ZM97.15,15.972c-4,1.293-9.2,1.89-13.283-1.459-5.118-4.2-11.39-3.476-15.642-2.211L67.31,3.145H98.43Z" transform="translate(-63.996)"/>
    </g>
  </g>
</svg>
