<svg xmlns="http://www.w3.org/2000/svg" width="50.575" height="76.837" viewBox="0 0 50.575 76.837">
  <g id="dollar-symbol_1_" data-name="dollar-symbol(1)" transform="matrix(0.978, 0.208, -0.208, 0.978, -99.391, -24.253)">
    <path id="Path_6" data-name="Path 6" d="M144.825,32.143a85.194,85.194,0,0,0-8.652-3.917,19.424,19.424,0,0,1-4.75-2.66c-2.821-2.251-2.28-5.9,1.023-7.351a8.338,8.338,0,0,1,2.908-.6,22.074,22.074,0,0,1,10.932,2.163c1.724.833,2.294.57,2.879-1.228.614-1.9,1.125-3.829,1.7-5.743a2.006,2.006,0,0,0-1.3-2.674,27.789,27.789,0,0,0-6.9-2.061c-3.127-.482-3.127-.5-3.142-3.639-.015-4.428-.015-4.428-4.457-4.428-.643,0-1.286-.015-1.929,0-2.075.058-2.426.424-2.484,2.514-.029.935,0,1.871-.015,2.821-.015,2.777-.029,2.733-2.689,3.7-6.43,2.338-10.405,6.723-10.829,13.737-.38,6.211,2.864,10.405,7.965,13.46,3.142,1.885,6.62,3,9.952,4.472a14.783,14.783,0,0,1,3.624,2.134,4.969,4.969,0,0,1-1.184,8.71,11.919,11.919,0,0,1-6.386.833,28.5,28.5,0,0,1-9.733-2.908c-1.8-.935-2.324-.687-2.937,1.257-.526,1.681-.994,3.376-1.461,5.071-.628,2.28-.395,2.821,1.783,3.887a31.077,31.077,0,0,0,8.769,2.514c2.368.38,2.441.482,2.47,2.937.015,1.111.015,2.236.029,3.347a1.988,1.988,0,0,0,2.134,2.251c1.637.029,3.288.029,4.925-.015a1.874,1.874,0,0,0,2.031-2.119c0-1.52.073-3.054.015-4.574a2.416,2.416,0,0,1,2.09-2.747,16.516,16.516,0,0,0,8.608-5.524C156.064,48.16,153.681,37.039,144.825,32.143Z" transform="translate(0 0)"/>
  </g>
</svg>
