<svg xmlns="http://www.w3.org/2000/svg" width="15.8" height="21.846" viewBox="0 0 15.8 21.846">
  <g id="lock-padlock-symbol-for-security-interface" transform="translate(-80.994)">
    <g id="Group_27" data-name="Group 27" transform="translate(80.994)">
      <path id="Path_25" data-name="Path 25" d="M88.894,0a6.4,6.4,0,0,0-6.389,6.389v3.649a.172.172,0,0,1-.091.125c-.345.115-.626.215-.883.314a.884.884,0,0,0-.537.79v8.384a.89.89,0,0,0,.534.79,20,20,0,0,0,14.733,0,.89.89,0,0,0,.534-.79V11.266a.884.884,0,0,0-.537-.79c-.257-.1-.537-.2-.883-.314a.172.172,0,0,1-.091-.125V6.388A6.4,6.4,0,0,0,88.894,0Zm-1.74,13.819a1.74,1.74,0,1,1,3.48,0,1.714,1.714,0,0,1-.87,1.473v2.877a.87.87,0,1,1-1.74,0V15.292A1.714,1.714,0,0,1,87.154,13.819Zm5.932-7.431V9.537a19.942,19.942,0,0,0-8.384,0V6.388a4.192,4.192,0,0,1,8.384,0Z" transform="translate(-80.994)"/>
    </g>
  </g>
</svg>
