<svg xmlns="http://www.w3.org/2000/svg" width="54.476" height="61.744" viewBox="0 0 54.476 61.744">
  <g id="megaphone_1_" data-name="megaphone(1)" transform="translate(-30.136)">
    <g id="Group_11" data-name="Group 11" transform="translate(52.57 0.494)">
      <g id="Group_10" data-name="Group 10" transform="translate(0)">
        <path id="Path_11" data-name="Path 11" d="M246.421,29.242,222.34,5.157a3.619,3.619,0,1,0-5.119,5.118l24.085,24.083a3.617,3.617,0,1,0,5.116-5.116Z" transform="translate(-216.163 -4.1)"/>
      </g>
    </g>
    <g id="Group_13" data-name="Group 13" transform="translate(43.083 9.998)">
      <g id="Group_12" data-name="Group 12">
        <path id="Path_12" data-name="Path 12" d="M146.252,82.9l-.181.909a38.887,38.887,0,0,1-8.576,17.371l13.1,13.1a38.757,38.757,0,0,1,17.287-8.661l.91-.181Z" transform="translate(-137.494 -82.905)"/>
      </g>
    </g>
    <g id="Group_15" data-name="Group 15" transform="translate(30.136 30.992)">
      <g id="Group_14" data-name="Group 14" transform="translate(0)">
        <path id="Path_13" data-name="Path 13" d="M40.681,256.989l-8.955,8.953a5.426,5.426,0,0,0,0,7.676l5.116,5.116a5.426,5.426,0,0,0,7.675,0l8.954-8.954Zm1.279,14.07A1.809,1.809,0,0,1,39.4,268.5l2.558-2.558a1.809,1.809,0,1,1,2.558,2.558Z" transform="translate(-30.136 -256.989)"/>
      </g>
    </g>
    <g id="Group_17" data-name="Group 17" transform="translate(49.633 41.735)">
      <g id="Group_16" data-name="Group 16">
        <path id="Path_14" data-name="Path 14" d="M203.2,358.038l2.461-2.461a5.422,5.422,0,0,0,0-7.674l-1.828-1.829a34.259,34.259,0,0,0-2.913,2.2l2.183,2.186a1.8,1.8,0,0,1,0,2.556l-2.5,2.5-3.676-3.561-5.116,5.116,8.207,7.953a3.618,3.618,0,0,0,5.114-5.119Z" transform="translate(-191.813 -346.075)"/>
      </g>
    </g>
    <g id="Group_19" data-name="Group 19" transform="translate(66.523)">
      <g id="Group_18" data-name="Group 18">
        <path id="Path_15" data-name="Path 15" d="M333.673,0a1.808,1.808,0,0,0-1.809,1.809V5.427a1.809,1.809,0,0,0,3.618,0V1.809A1.808,1.808,0,0,0,333.673,0Z" transform="translate(-331.864)"/>
      </g>
    </g>
    <g id="Group_21" data-name="Group 21" transform="translate(77.376 14.471)">
      <g id="Group_20" data-name="Group 20">
        <path id="Path_16" data-name="Path 16" d="M427.291,120h-3.618a1.809,1.809,0,1,0,0,3.618h3.618a1.809,1.809,0,1,0,0-3.618Z" transform="translate(-421.864 -120)"/>
      </g>
    </g>
    <g id="Group_23" data-name="Group 23" transform="translate(73.758 3.618)">
      <g id="Group_22" data-name="Group 22">
        <path id="Path_17" data-name="Path 17" d="M398.569,30.53a1.808,1.808,0,0,0-2.558,0l-3.618,3.618a1.809,1.809,0,1,0,2.558,2.558l3.618-3.618A1.808,1.808,0,0,0,398.569,30.53Z" transform="translate(-391.864 -30)"/>
      </g>
    </g>
  </g>
</svg>
