<svg xmlns="http://www.w3.org/2000/svg" xmlns:xlink="http://www.w3.org/1999/xlink" width="1644" height="604" viewBox="0 0 1644 604">
  <defs>
    <filter id="Info_icon_BG" x="1510" y="0" width="134" height="134" filterUnits="userSpaceOnUse">
      <feOffset dy="3" input="SourceAlpha"/>
      <feGaussianBlur stdDeviation="3" result="blur"/>
      <feFlood flood-opacity="0.161"/>
      <feComposite operator="in" in2="blur"/>
      <feComposite in="SourceGraphic"/>
    </filter>
  </defs>
  <path id="About_us_bg" data-name="About us bg" d="M0,0H1550a35,35,0,0,1,35,35V164a400,400,0,0,1-400,400H0a0,0,0,0,1,0,0V0A0,0,0,0,1,0,0Z" transform="translate(0 40)" fill="#ffeeb5"/>
  <g id="Information_icon" data-name="Information icon" transform="translate(0 -1011)">
    <g transform="matrix(1, 0, 0, 1, 0, 1011)" filter="url(#Info_icon_BG)">
      <circle id="Info_icon_BG-2" data-name="Info icon BG" cx="58" cy="58" r="58" transform="translate(1519 6)" fill="#fff" opacity="0.8"/>
    </g>
    <path id="Info_icon" data-name="Info icon" d="M28,0A28,28,0,1,0,56,28,28.032,28.032,0,0,0,28,0Zm1.821,44.613c-1.33.222-3.977.776-5.321.887a3.276,3.276,0,0,1-2.866-1.492,3.5,3.5,0,0,1-.424-3.2L26.5,26.25H21c0-3.033,2.27-5.262,5.179-6.118A20.262,20.262,0,0,1,31.5,19.25a4.221,4.221,0,0,1,2.866,1.492,3.5,3.5,0,0,1,.424,3.2L29.5,38.5H35a6.2,6.2,0,0,1-5.177,6.113ZM31.5,17.5A3.5,3.5,0,1,1,35,14a3.5,3.5,0,0,1-3.5,3.5Z" transform="translate(1549 1046.618)" fill="#0a0c10"/>
  </g>
</svg>
