<svg xmlns="http://www.w3.org/2000/svg" width="52.177" height="58.438" viewBox="0 0 52.177 58.438">
  <path id="secure_1_" data-name="secure(1)" d="M63.764,8.179A1.91,1.91,0,0,0,62.384,6.6L38.9.07a1.909,1.909,0,0,0-1.024,0L14.385,6.6a1.91,1.91,0,0,0-1.38,1.577c-.136.98-3.244,24.125,4.727,35.639a37.5,37.5,0,0,0,20.2,14.567,1.916,1.916,0,0,0,.9,0,37.5,37.5,0,0,0,20.2-14.567C67.008,32.3,63.9,9.159,63.764,8.179ZM53.531,21.692,37.51,37.713a1.909,1.909,0,0,1-2.7,0L24.9,27.807a1.909,1.909,0,0,1,0-2.7l1.967-1.967a1.91,1.91,0,0,1,2.7,0l6.588,6.588,12.7-12.7a1.909,1.909,0,0,1,2.7,0l1.967,1.967A1.91,1.91,0,0,1,53.531,21.692Z" transform="translate(-12.296 0)"/>
</svg>
