<svg xmlns="http://www.w3.org/2000/svg" width="46.575" height="57.323" viewBox="0 0 46.575 57.323">
  <g id="trash" transform="translate(-48)">
    <path id="Path_9" data-name="Path 9" d="M90.1,7.165H80.245V5.374A5.374,5.374,0,0,0,74.87,0H67.7a5.374,5.374,0,0,0-5.374,5.374V7.165H52.478A4.478,4.478,0,0,0,48,11.644v3.583a1.791,1.791,0,0,0,1.791,1.791H92.784a1.791,1.791,0,0,0,1.791-1.791V11.644A4.478,4.478,0,0,0,90.1,7.165ZM65.914,5.374A1.794,1.794,0,0,1,67.7,3.583H74.87a1.794,1.794,0,0,1,1.791,1.791V7.165H65.914Z" transform="translate(0)"/>
    <path id="Path_10" data-name="Path 10" d="M73.924,184a.56.56,0,0,0-.559.586L74.843,215.6a5.367,5.367,0,0,0,5.367,5.119h27.2a5.367,5.367,0,0,0,5.367-5.119l1.478-31.018A.56.56,0,0,0,113.7,184Zm27.054,4.478a1.791,1.791,0,0,1,3.583,0v23.288a1.791,1.791,0,1,1-3.583,0Zm-8.957,0a1.791,1.791,0,0,1,3.583,0v23.288a1.791,1.791,0,1,1-3.583,0Zm-8.957,0a1.791,1.791,0,0,1,3.583,0v23.288a1.791,1.791,0,1,1-3.583,0Z" transform="translate(-22.524 -163.399)"/>
  </g>
</svg>
