<svg xmlns="http://www.w3.org/2000/svg" width="24.132" height="19.612" viewBox="0 0 24.132 19.612">
  <path id="twitter" d="M7.671,15.788A13.991,13.991,0,0,0,21.758,1.7q0-.321-.014-.64A10.076,10.076,0,0,0,24.214-1.5a9.878,9.878,0,0,1-2.843.78,4.97,4.97,0,0,0,2.177-2.739A9.93,9.93,0,0,1,20.4-2.26a4.953,4.953,0,0,0-8.566,3.386,4.946,4.946,0,0,0,.128,1.129A14.057,14.057,0,0,1,1.761-2.918a4.939,4.939,0,0,0-.67,2.489,4.947,4.947,0,0,0,2.2,4.121,4.912,4.912,0,0,1-2.242-.619c0,.021,0,.041,0,.063A4.952,4.952,0,0,0,5.023,7.99a4.969,4.969,0,0,1-1.306.174,4.921,4.921,0,0,1-.931-.089,4.956,4.956,0,0,0,4.625,3.439,9.933,9.933,0,0,1-6.149,2.119,10.076,10.076,0,0,1-1.181-.069,14.015,14.015,0,0,0,7.589,2.224" transform="translate(-0.082 3.824)" fill="#0a0c10"/>
</svg>
